
                    <svg xmlns="http://www.w3.org/2000/svg" width="417" height="417" viewBox="0 0 29 29">
                        <rect width="29" height="29" fill="#0810f7"/>
                        <path fill="#f50f0f" d="M4 4h7v1H4zM15 4h2v1h-2zM19 4h1v1h-1zM21 4h1v1h-1zM23 4h2v1h-2zM4 5h1v1H4zM6 5h1v1H6zM8 5h1v1H8zM10 5h1v1h-1zM15 5h1v1h-1zM17 5h1v1h-1zM19 5h4v1h-4zM24 5h1v1h-1zM4 6h1v1H4zM6 6h1v1H6zM8 6h1v1H8zM10 6h1v1h-1zM15 6h1v1h-1zM17 6h1v1h-1zM19 6h1v1h-1zM21 6h1v1h-1zM23 6h1v1h-1zM4 7h7v1H4zM15 7h2v1h-2zM19 7h1v1h-1zM21 7h1v1h-1zM23 7h2v1h-2z"/>
                    </svg>
                